<?xml version="1.0" encoding="UTF-8" standalone="no"?>
<!DOCTYPE svg PUBLIC "-//W3C//DTD SVG 1.1//EN" "http://www.w3.org/Graphics/SVG/1.1/DTD/svg11.dtd">
<svg width="100%" height="100%" viewBox="0 0 256 256" version="1.1" xmlns="http://www.w3.org/2000/svg" xmlns:xlink="http://www.w3.org/1999/xlink" xml:space="preserve" xmlns:serif="http://www.serif.com/" style="fill-rule:evenodd;clip-rule:evenodd;stroke-linecap:round;stroke-linejoin:round;stroke-miterlimit:1.5;">
    <path d="M128.43,5.71C92.75,5.71 61.51,19.16 39.97,43.89C44.11,42.09 48.04,41.47 51.85,41.47C57.72,41.47 62.11,43.08 66.69,45.87L116.16,71.78C120.31,70.62 123.82,70.22 127.59,70.22C151.79,70.22 171.11,86.66 178.53,108.96L188.71,115.9C194.92,119.65 195.97,125.07 195.97,128.31C195.97,133.96 192.72,138.78 186.91,142.13L177.72,147.91C169.12,168.99 152.38,183.94 127.31,183.94C122.92,183.94 119.51,183.61 115.77,183.14L64.43,210.92C59.84,213.41 55.08,214.19 50.61,214.19C47.61,214.19 44.93,213.72 42.56,213.1C65.11,235.73 94.79,250.29 127.88,250.29C194.18,250.29 250.89,194.34 250.89,128.23C250.89,63.08 196.72,5.71 128.43,5.71ZM128.29,233.92C107.19,233.92 90.71,228.98 74.4,218.16C89.53,227.18 103.43,233.04 127.91,233.04C185.72,233.04 236.22,186.27 236.22,127.17C236.22,70.19 188.28,19.41 128.13,19.41C106.88,19.41 89.89,24.81 74.4,36.19C89.89,26.18 105.91,20.14 128.29,20.14C187.02,20.14 232.71,69.03 232.71,126.69C232.71,184.81 185.83,233.92 128.29,233.92ZM127.42,214.87C109.97,214.87 97.97,210.96 85.05,203.19C97.42,210.18 107.99,213.97 127.71,213.97C175.19,213.97 213.51,175.11 213.51,126.97C213.51,79.81 174.38,38.65 127.18,38.65C110.98,38.65 98.69,42.86 86.61,50.02C98.82,42.26 111.41,37.68 127.42,37.68C176.13,37.68 215.31,77.96 215.31,126.11C215.31,174.91 175.28,214.87 127.42,214.87ZM126.98,55.69C118.92,55.69 112.66,56.91 105.61,59.81C112.91,57.23 118.25,56.46 127.23,56.46C159.98,56.46 188.71,80.66 195.01,111.72C189.07,80.74 160.92,55.69 126.98,55.69ZM126.67,197.81C117.85,197.81 111.01,196.08 102.83,192.6C110.98,195.72 116.36,197.21 126.71,197.21C157.75,197.21 186.71,176.21 194.81,143.71C187.72,174.71 160.06,197.81 126.67,197.81Z" style="fill-rule:nonzero;"/>
    <path d="M185.52,122.08L62.27,49.71C53.08,44.77 43.03,48.36 38.56,50.58C33.02,53.31 27.72,56.83 23.71,63.37C10.67,84.41 5.72,104.13 5.72,128.63C5.72,151.76 13.19,177.08 27.13,197.09C34.72,206.93 49.85,207.44 58.92,204.21L184.86,134.99C189.78,132.62 190.01,125.03 185.52,122.08Z" style="fill:rgb(20,164,221);fill-rule:nonzero;"/>
    <g transform="matrix(4.754047,0,0,4.754047,-39.635241,-56.005397)">
        <path d="M18.489,27.638C16.218,30.881 15,34.745 15,38.705C15,42.665 16.218,46.529 18.489,49.772C16.218,46.529 15,42.665 15,38.705C15,34.745 16.218,30.881 18.489,27.638Z" style="fill:rgb(235,235,235);fill-opacity:0;stroke:rgb(235,235,235);stroke-width:3.79px;"/>
    </g>
    <g transform="matrix(3.325071,0,0,3.325071,15.619459,-0.696863)">
        <path d="M18.489,27.638C16.218,30.881 15,34.745 15,38.705C15,42.665 16.218,46.529 18.489,49.772C16.218,46.529 15,42.665 15,38.705C15,34.745 16.218,30.881 18.489,27.638Z" style="fill:rgb(235,235,235);fill-opacity:0;stroke:rgb(235,235,235);stroke-width:5.41px;"/>
    </g>
    <g transform="matrix(1.841972,0,0,1.841972,71.986681,56.706487)">
        <path d="M18.489,27.638C16.218,30.881 15,34.745 15,38.705C15,42.665 16.218,46.529 18.489,49.772C16.218,46.529 15,42.665 15,38.705C15,34.745 16.218,30.881 18.489,27.638Z" style="fill:rgb(235,235,235);fill-opacity:0;stroke:rgb(235,235,235);stroke-width:9.77px;"/>
    </g>
    <g transform="matrix(0.654725,0,0,0.654725,121.976201,102.554497)">
        <path d="M17.1,29.95C15.72,32.662 15,35.662 15,38.705C15,41.87 15.778,44.986 17.267,47.778L34.295,38.705L17.1,29.95Z" style="fill:white;stroke:rgb(235,235,235);stroke-width:27.49px;"/>
    </g>
</svg>
